HIERARCHY
ROOT root
{
	OFFSET 0.000000 0.000000 0.000000
	CHANNELS 6 Xposition Yposition Zposition Zrotation Yrotation Xrotation
	JOINT lhip
	{
		OFFSET 0.058581 -0.082280 -0.017664
		CHANNELS 3 Zrotation Yrotation Xrotation
		JOINT lknee
		{
			OFFSET 0.043451 -0.386469 0.008037
			CHANNELS 3 Zrotation Yrotation Xrotation
			JOINT lankle
			{
				OFFSET -0.014790 -0.426874 -0.037428
				CHANNELS 3 Zrotation Yrotation Xrotation
				JOINT ltoe
				{
					OFFSET 0.041054 -0.060286 0.122042
					CHANNELS 3 Zrotation Yrotation Xrotation
					End Site
					{
						OFFSET 0.000000 0.000000 0.000000
					}
				}
			}
		}
	}
	JOINT rhip
	{
		OFFSET -0.060310 -0.090513 -0.013543
		CHANNELS 3 Zrotation Yrotation Xrotation
		JOINT rknee
		{
			OFFSET -0.043257 -0.383688 -0.004843
			CHANNELS 3 Zrotation Yrotation Xrotation
			JOINT rankle
			{
				OFFSET 0.019056 -0.420046 -0.034562
				CHANNELS 3 Zrotation Yrotation Xrotation
				JOINT rtoe
				{
					OFFSET -0.034840 -0.062106 0.130323
					CHANNELS 3 Zrotation Yrotation Xrotation
					End Site
					{
						OFFSET 0.000000 0.000000 0.000000
					}
				}
			}
		}
	}
	JOINT lowerback
	{
		OFFSET 0.004439 0.124404 -0.038385
		CHANNELS 3 Zrotation Yrotation Xrotation
		JOINT upperback
		{
			OFFSET 0.004488 0.137956 0.026820
			CHANNELS 3 Zrotation Yrotation Xrotation
			JOINT chest
			{
				OFFSET -0.002265 0.056032 0.002855
				CHANNELS 3 Zrotation Yrotation Xrotation
				JOINT lowerneck
				{
					OFFSET -0.013390 0.211636 -0.033468
					CHANNELS 3 Zrotation Yrotation Xrotation
					JOINT upperneck
					{
						OFFSET 0.010113 0.088937 0.050410
						CHANNELS 3 Zrotation Yrotation Xrotation
						End Site
						{
							OFFSET 0.000000 0.000000 0.000000
						}
					}
				}
				JOINT lclavicle
				{
					OFFSET 0.071702 0.114000 -0.018898
					CHANNELS 3 Zrotation Yrotation Xrotation
					JOINT lshoulder
					{
						OFFSET 0.122921 0.045205 -0.019046
						CHANNELS 3 Zrotation Yrotation Xrotation
						JOINT lelbow
						{
							OFFSET 0.255332 -0.015649 -0.022946
							CHANNELS 3 Zrotation Yrotation Xrotation
							JOINT lwrist
							{
								OFFSET 0.265709 0.012698 -0.007375
								CHANNELS 3 Zrotation Yrotation Xrotation
								End Site
								{
									OFFSET 0.000000 0.000000 0.000000
								}
							}
						}
					}
				}
				JOINT rclavicle
				{
					OFFSET -0.082954 0.112472 -0.023707
					CHANNELS 3 Zrotation Yrotation Xrotation
					JOINT rshoulder
					{
						OFFSET -0.113228 0.046853 -0.008472
						CHANNELS 3 Zrotation Yrotation Xrotation
						JOINT relbow
						{
							OFFSET -0.260127 -0.014369 -0.031269
							CHANNELS 3 Zrotation Yrotation Xrotation
							JOINT rwrist
							{
								OFFSET -0.269108 0.006794 -0.006027
								CHANNELS 3 Zrotation Yrotation Xrotation
								End Site
								{
									OFFSET 0.000000 0.000000 0.000000
								}
							}
						}
					}
				}
			}
		}
	}
}
MOTION
Frames: 11
Frame Time: 0.033333
0.097766 0.532059 0.969474 -34.275588 3.006024 88.639464 4.030140 5.282645 -0.098514 -5.705998 -3.216535 14.700594 3.814922 12.018309 -25.467460 0.000000 -0.000000 0.000000 -0.913103 -5.331424 -14.988419 5.792605 -14.488693 8.345735 4.125117 -12.764927 -6.515086 0.000000 -0.000000 0.000000 0.169302 -0.714785 16.235962 0.197845 1.150570 -8.697565 1.512506 -1.803550 3.801407 6.710580 -4.611377 -9.646906 1.485534 -10.862021 8.065074 -27.146227 1.782472 -2.133223 -47.513771 -9.630945 4.578621 11.181072 -28.433421 -1.872234 8.372635 -3.559106 -0.257803 23.580013 1.591042 -4.688060 47.371816 5.366244 12.347775 -6.460581 31.440442 -3.699392 -4.726505 2.808377 -2.327409 
0.109585 0.538134 0.969850 -34.729989 2.967010 89.154593 3.150620 4.759129 -1.230501 -5.611077 -2.695457 13.892916 4.315582 12.307196 -25.038887 0.000000 -0.000000 0.000000 -1.054600 -4.580541 -16.595392 5.349727 -14.383589 8.232647 4.868589 -13.786402 -5.355216 0.000000 -0.000000 0.000000 -0.394284 -0.744624 16.729488 0.215552 1.186793 -9.028440 1.649291 -1.825608 4.139424 6.801883 -4.581496 -9.899141 1.845519 -10.592355 7.401769 -26.617413 1.617119 -2.111898 -47.680515 -9.998719 4.501640 11.290264 -26.593638 -1.939831 6.399847 -3.771651 -1.033270 23.319358 1.608468 -4.744012 48.053076 5.982506 12.670902 -6.697540 31.651235 -3.426699 -3.273306 2.674263 -2.774887 
0.120768 0.543753 0.970092 -35.207846 2.962560 89.642525 2.465096 4.619788 -2.208541 -5.542198 -2.344407 12.861620 4.968813 11.774611 -24.668108 0.000000 -0.000000 0.000000 -1.138659 -4.437056 -18.349281 4.897822 -14.210894 8.740847 5.339773 -14.154404 -4.694719 0.000000 -0.000000 0.000000 -0.872312 -0.766347 17.209043 0.250968 1.180017 -9.290340 1.690548 -1.864804 4.319628 6.890515 -4.583927 -10.208716 2.104306 -10.710595 7.243812 -26.368715 1.593602 -1.803663 -47.259284 -10.015015 4.364520 11.031020 -25.770484 -2.120043 4.764088 -3.738991 -1.659136 23.322657 1.649509 -4.737048 48.417476 6.364596 13.004599 -6.433024 32.121954 -3.604220 -2.040681 2.794345 -3.511100 
0.137025 0.552350 0.970076 -36.030907 3.111041 90.532908 1.749714 4.826196 -3.893863 -5.568282 -1.899379 11.602570 5.720377 11.874376 -23.782616 0.000000 -0.000000 0.000000 -1.363921 -4.534036 -21.814209 4.331420 -14.531478 11.187399 7.137547 -14.254311 -6.416323 0.000000 -0.000000 0.000000 -1.549768 -0.873332 17.688772 0.387678 1.233280 -9.586303 1.773866 -1.968553 4.491519 7.170907 -4.250725 -10.630874 2.462409 -10.759871 7.132125 -25.957901 1.441697 -1.289775 -46.843421 -9.794366 4.228643 11.188174 -24.747432 -2.992862 2.521247 -3.503609 -1.930845 23.088808 1.669800 -4.526056 49.041480 6.874825 13.456366 -5.707291 33.212063 -3.306163 1.477078 3.309056 -4.481165 
0.141931 0.554935 0.970217 -36.287699 3.254578 90.798341 1.617369 4.770313 -4.297245 -5.544410 -1.808759 11.008044 5.871688 11.933222 -23.505130 0.000000 -0.000000 0.000000 -1.381552 -4.611061 -22.833532 4.314429 -14.664921 11.908234 7.790444 -14.168514 -7.043838 0.000000 -0.000000 0.000000 -1.684636 -0.920697 17.690470 0.457158 1.222412 -9.537740 1.798524 -1.996825 4.524929 7.318448 -4.020709 -10.686192 2.551700 -10.754674 7.078276 -25.835275 1.320937 -1.163994 -46.779350 -9.736350 4.273293 11.348611 -24.156312 -3.359721 2.592448 -3.611222 -1.838198 23.006272 1.703970 -4.384142 49.256279 6.923367 13.637264 -6.061464 33.239492 -3.203350 1.755336 3.268161 -4.307728 
0.150979 0.559466 0.970928 -36.665744 3.693205 91.230853 1.538279 4.800070 -5.025653 -5.393884 -1.660324 10.078465 6.041652 11.867299 -22.842702 0.000000 -0.000000 0.000000 -1.285819 -4.427493 -24.335562 4.339677 -14.913505 12.766367 8.558750 -14.226562 -7.784568 0.000000 -0.000000 0.000000 -1.749900 -1.088310 17.962772 0.579744 1.172754 -9.519373 1.840118 -2.050405 4.332475 7.531440 -3.605676 -10.867210 2.631457 -10.604014 7.008798 -25.699967 1.283245 -1.009801 -46.604151 -9.641588 4.316224 11.506079 -23.056889 -3.699066 2.816986 -3.858714 -1.459276 23.011651 1.581667 -4.119986 49.493984 7.120927 13.809624 -6.014562 33.259816 -3.310141 1.712623 3.523589 -4.442347 
0.159012 0.563825 0.971858 -37.096107 4.098767 91.543877 1.535145 4.689909 -5.698206 -5.330257 -1.300448 9.366160 6.149264 11.910496 -22.135735 0.000000 -0.000000 0.000000 -1.121989 -4.069413 -25.633315 4.196406 -15.094414 13.726116 9.018023 -14.066388 -8.641579 0.000000 -0.000000 0.000000 -1.920641 -1.274984 18.208042 0.733542 1.133165 -9.573118 1.923113 -2.050402 4.362390 7.714135 -3.302094 -10.918902 2.714874 -10.602501 7.070229 -25.578081 1.298713 -0.966343 -46.566740 -9.623194 4.336173 11.758589 -22.261792 -4.307219 3.061186 -3.934468 -1.165762 23.045669 1.522466 -3.967019 49.797607 7.264452 13.974350 -6.296689 33.027316 -3.593775 1.509779 3.680162 -4.200234 
0.165734 0.567973 0.972902 -37.514170 4.609223 91.695682 1.810416 4.782857 -6.290683 -5.309855 -0.837504 8.952864 6.056277 11.810044 -21.595335 0.000000 -0.000000 0.000000 -0.805548 -3.820459 -26.557724 3.973661 -15.710340 14.703456 8.859708 -14.203958 -9.427662 0.000000 -0.000000 0.000000 -1.908927 -1.394581 18.541813 0.803751 1.140319 -9.741106 2.009994 -2.094249 4.383173 7.680937 -2.749219 -10.852518 2.869163 -10.286437 7.000560 -25.460416 1.345068 -0.786897 -46.482270 -9.616327 4.167953 11.825372 -22.070014 -4.576699 3.171821 -3.933462 -1.172788 23.073706 1.506560 -3.809854 49.950415 7.177308 14.038824 -6.162062 32.761025 -3.462608 1.468675 3.770582 -4.333433 
0.171069 0.571250 0.973981 -37.836512 5.042007 91.645891 2.093056 4.746458 -6.743356 -5.365395 -0.651917 8.979074 6.148488 11.983675 -21.152478 0.000000 -0.000000 0.000000 -0.659256 -3.918570 -27.200330 3.713294 -16.137272 16.932320 8.127724 -14.756193 -9.835265 0.000000 -0.000000 0.000000 -1.935080 -1.428607 18.701993 0.924010 1.165593 -9.748247 2.080558 -2.161086 4.396318 7.704860 -2.576897 -10.711726 2.821378 -10.099743 7.118180 -25.438679 1.367579 -0.625417 -46.391454 -9.636129 4.038606 11.945741 -22.247232 -4.630652 3.109529 -3.944236 -1.472957 23.086386 1.436395 -3.579923 50.011137 6.899726 14.068936 -6.171844 32.494310 -3.174491 1.586156 3.687601 -4.094634 
0.175469 0.573526 0.975263 -38.057558 5.353840 91.543458 2.191955 4.586793 -6.928464 -5.336236 -0.559856 8.805233 6.334913 12.344076 -20.693286 0.000000 -0.000000 0.000000 -0.619634 -4.011275 -27.551730 3.521618 -16.278483 20.375524 7.421156 -15.280385 -10.904729 0.000000 -0.000000 0.000000 -1.940544 -1.487376 18.609031 1.071343 1.215123 -9.646152 1.999568 -2.159270 4.589828 7.870425 -2.749733 -10.815305 2.732121 -10.418052 7.315823 -25.550424 1.412868 -0.756888 -46.252344 -9.727710 3.972079 11.961865 -22.725347 -4.636080 2.961938 -3.706617 -1.452357 23.253934 1.355449 -3.656004 49.972730 6.491573 14.019255 -6.124168 31.940547 -2.992160 2.060231 3.541092 -3.629778 
0.179096 0.575476 0.976455 -38.220838 5.639209 91.416412 2.323542 4.627379 -7.077228 -5.346479 -0.649756 8.770988 6.446054 12.575604 -20.445260 0.000000 -0.000000 0.000000 -0.633541 -3.383485 -27.323712 3.401073 -15.723183 23.947306 6.888290 -14.926009 -12.409173 0.000000 -0.000000 0.000000 -1.952652 -1.571620 18.430733 1.250233 1.262444 -9.486347 1.940230 -2.128997 4.597118 7.965000 -2.514497 -10.783185 2.512062 -10.422655 7.524407 -25.677975 1.359751 -0.729681 -46.265199 -9.729182 4.003293 12.150872 -23.437139 -4.796212 3.004834 -3.599351 -1.523804 23.296051 1.314179 -3.504743 49.901379 6.166125 14.009384 -5.977335 31.376180 -2.712661 2.573091 3.547034 -3.435386 
